<svg xmlns="http://www.w3.org/2000/svg" xml:space="preserve" id="coffee-brew" x="0" y="0" style="enable-background:new 0 0 150 150" version="1.1" viewBox="0 0 150 150">
  <g id="Coffee_Brewing_1_">
    <g id="Coffee_Brewing">
      <g>
        <g>
          <path d="M107.7105255,27.954813l-4.440155,9.1892529l-0.9749146,3.803112
					c-0.6534958,2.1842804-2.8967133,7.2981796-3.9092789,9.4884186c-1.5830307,3.3591309-3.1370773,3.8900108-4.9324951,7.1622429
					c-0.6853104,1.2253342-1.3893738,2.3609924-1.9111938,3.3204803c-2.7625351,5.000824-2.7375107,5.1134949-3.4556274,5.9266281
					c-2.6795807,2.9979324-10.4818649,3.6872787-14.5464096,3.6872787c-5.9183273,0-12.5688705-1.2650146-14.4981041-2.2200699
					c-1.6638832-0.8046875-2.6430664-3.4260483-3.2722321-4.4594803c-0.9170036-1.5251198-1.8146858-3.0695076-2.7027054-4.60429
					c0.0096626-0.0096626,0.0096626-0.0096626,0.019268-0.0096626c-1.2234039-2.5477257-2.5815277-4.3103218-4.1409264-7.2490196
					l-0.0385895-0.0289841c-1.653862-2.9840622-1.7694168-3.6522255-2.3842125-4.3822403
					c-0.4247169-0.5116158-1.0231705-0.9363289-1.4864731-1.4189568
					c-7.0975876-7.2794762-4.2170525-5.7908859-16.1873589-20.7722645c-0.347477-0.1254883-0.7046165-0.2317104-0.9845791-0.4826279
					c-0.5829163-0.5663452-0.7379227-1.8637352,0.2317104-2.876503c1.6022987-1.6505489,6.0521126-2.1621628,8.3494263-3.0405197
					c3.4011917-1.2910175,7.5012932-7.4753304,32.2588921-8.1467609c2.2683258-0.0772371,4.5269928,0.0675745,6.7857132,0.1737385
					c8.5424957,0.3957291,19.7394943,1.3513231,27.5291138,4.8069553c3.0509949,1.3560677,6.0672836,3.2816257,6.592659,7.0270901
					C109.930603,25.1652088,109.0135956,26.2366295,107.7105255,27.954813z" style="fill:#201810"></path>
        </g>
        <g>
          <g>
            <g>
              <path d="M75.9150009,81.0245514c-3.8775635-0.0124359-12.5970726-0.9465408-16.0232239-1.8821945
							l0.1158257,2.3165741c4.7587013,0.8880234,9.6428947,1.196907,14.4884987,0.9170074
							c0.2702408-0.0193253,0.5115509,0.1930618,0.5308762,0.4729614c0.0096664,0.2799072-0.1930618,0.5116196-0.4633636,0.5308838
							c-4.26828,0.279953-9.3240128,0.0440445-14.5174217-0.8976822c0,0.4247131-0.0096626,1.1486588,0.1544151,1.3223953
							c5.0096817,1.2355576,10.6564636,1.8050232,15.791626,1.3223953
							C76.050148,83.794838,76.1369858,82.3469543,75.9150009,81.0245514z M75.9150009,81.0245514
							c-3.8775635-0.0124359-12.5970726-0.9465408-16.0232239-1.8821945l0.1158257,2.3165741
							c4.7587013,0.8880234,9.6428947,1.196907,14.4884987,0.9170074c0.2702408-0.0193253,0.5115509,0.1930618,0.5308762,0.4729614
							c0.0096664,0.2799072-0.1930618,0.5116196-0.4633636,0.5308838c-4.26828,0.279953-9.3240128,0.0440445-14.5174217-0.8976822
							c0,0.4247131-0.0096626,1.1486588,0.1544151,1.3223953c5.0096817,1.2355576,10.6564636,1.8050232,15.791626,1.3223953
							C76.050148,83.794838,76.1369858,82.3469543,75.9150009,81.0245514z M76.7065125,86.2755508
							c-1.0568237,0.5636673-1.8920212,0.3797531-3.3494644,0.3957825
							c-6.4951553,0.0267563-7.0002975-0.2014694-11.119709-0.9555893c-0.9749146-0.183403-2.0849838-0.2896271-3.0019875-0.6756897
							c-0.1544151-1.1100693-0.1544151-2.2779922-0.2219925-3.3977203
							c-0.1182442-1.9905853-0.3389359-2.8716888-0.0289268-3.6293716c0.9362717-0.0289307,2.0463371,0.2992249,2.9826088,0.4536972
							c5.8517609,1.0493164,9.567131,0.7677383,14.9132156,0.8397675
							C77.0321121,80.368515,77.4642487,85.3332214,76.7065125,86.2755508z M59.891777,79.1423569l0.1158257,2.3165741
							c4.7587013,0.8880234,9.6428947,1.196907,14.4884987,0.9170074c0.2702408-0.0193253,0.5115509,0.1930618,0.5308762,0.4729614
							c0.0096664,0.2799072-0.1930618,0.5116196-0.4633636,0.5308838c-4.26828,0.279953-9.3240128,0.0440445-14.5174217-0.8976822
							c0,0.4247131-0.0096626,1.1486588,0.1544151,1.3223953c5.0096817,1.2355576,10.6564636,1.8050232,15.791626,1.3223953
							c0.0579147-1.3320541,0.1447525-2.7799377-0.0772324-4.1023407
							C72.0374374,81.0121155,63.3179283,80.0780106,59.891777,79.1423569z M48.9457512,51.9897041l-0.0385895-0.0289841
							c0.106163,0.1930618,0.212326,0.376461,0.3184929,0.5695267
							C50.0864372,54.0488243,49.6749573,53.3638992,48.9457512,51.9897041z M92.0154572,60.0495682
							c0.0096588,0,0.0096588,0,0.0193253,0c0.1447525-0.2509766,0.289566-0.5116158,0.4439774-0.7625313L92.0154572,60.0495682z" style="fill:#201810"></path>
            </g>
            <g>
              <path d="M118.5793152,54.6248322c-1.1326675,2.1822128-1.4088364,2.7836914-4.0637512,5.8591118
							c-3.5617905,4.1119957-8.2915115,6.4479027-13.7066422,6.8243675c-0.98452-2.258728-2.9440155-4.3726387-5.3764801-6.409317
							c0.4151077,0.0193253,0.8687515-0.0096588,1.4189529-0.0965004c6.368042-1.0131416,11.0065308-3.8359947,14.4112625-9.6236305
							c1.9133072-3.2045059,4.1812592-9.5662308,3.6100464-12.9054642
							c-0.4385452-2.6310768-2.0671082-2.9413795-4.7201157-2.7992668
							c-2.3744888,0.1351509-4.5269928,0.4730263-6.7567902,1.2934685l-0.1254272,0.3764648
							c0.3474808-5.1834183,1.6505508-8.571476,4.440155-9.1892529c3.8610229,0.0482502,8.6004028-0.9073429,11.7953949,1.8532734
							c2.1235733,1.8340111,2.8185883,4.951767,3.0212555,7.6255455
							C122.9808807,43.3795815,121.3399277,49.3738403,118.5793152,54.6248322z" style="fill:#201810"></path>
            </g>
            <g>
              <path d="M108.579277,117.308548c-0.3088837,1.2838058-1.1486588,2.3455582-1.6891937,3.5231476
							c-0.6160278,1.346489-0.6899261,2.0980301-1.6216812,3.3204803c-2.6833801,3.3687897-11.1486969,7.210495-15.357193,8.3301544
							c-2.7606201,0.7336121-5.6177979,1.090744-8.4556503,1.4093018
							c-11.0617981,1.245163-27.6642075,0.4053955-36.9499626-6.3803253
							c-3.2344971-2.3549576-3.1343575-3.638382-3.9768486-4.6042938c-0.5019531-0.5598602-1.1390533-0.9941788-1.7181816-1.4575424
							c-7.1483822-5.7557983-3.0827408-14.1831436,0.801178-22.490448
							c1.0380554-2.1870728,6.312748-13.7906494,7.8475342-15.6564178
							c-0.4922905-0.4440384-1.0618172-0.8590927-1.1873055-1.5444489c-0.2123299-1.1196671,0.7529259-2.104248,0.7625885-3.2335815
							c0.0289268-1.9691544-0.6853523-3.8224335-0.8108406-5.7722702c-1.2451591-0.9459305-2.3359032-1.9497757-2.8088684-3.4942169
							c-1.6444588-5.4334641,4.2262306-8.427742,9.6525574-10.0097008
							c24.830616-5.1686211,40.2412834,1.5810165,42.3650322,1.6506081c3.1166382,1.5078735,5.0097351,3.6730881,5.3764801,6.409317
							h-0.0385895l0.0193253,1.5926361c-1.7278442,1.2644806-3.0695038,8.7259445-0.183403,10.1738281h-2.2587204
							c0.3043976,2.411644,0.6653748,3.7204208-0.9941864,5.1930847c0.1550293,0.4223251,3.1460953,6.6277313,3.1949997,6.7278061
							c0.6370392,1.3223953,1.1872406,2.6737747,1.7953568,4.0058289c0.5598679,1.2065735,1.196907,2.3938217,1.7567749,3.610054
							c0.6756897,1.4478836,1.2838058,2.9440155,1.9401703,4.4208832c1.3205185,3.0160828,2.5614548,4.9961853,2.7895432,8.4555893
							C108.8881073,112.4919281,108.7916031,116.352951,108.579277,117.308548z" style="fill:#201810"></path>
            </g>
            <g>
              <path d="M71.2593231,89.2340775c1.0004349,0.3283997,0.8795319,2.8814011,0.9161301,3.7382889
							c0.0477066,1.1179199,0.1335831,2.2341385,0.1640549,3.3529282c0.0282669,1.0418625-0.1847458,2.4096909,0.2814102,2.837532
							c0.0979767,0.089859,0.0664978,0.0618134,0.2133255,0.0519791c0.3961945-0.5055542,0.2708664-7.0554581,0.3650055-8.2833328
							c0.0340347-0.4447556,0.1331558-1.4242554,0.5129623-1.6939774c0.0800323-0.0568237,0.1278839-0.011673,0.2121887,0.0139618
							c0.65168,0.753212,0.4654007,2.321434,0.455574,3.2711716c0.006691,1.2307205,0.0578232,8.0687256-0.3414993,8.5839691
							c-0.2758484,0.3560257-0.7889557,0.5125351-1.2129135,0.5821762
							c-0.5246429,0.0861511-1.2583466,0.1727448-1.6996765-0.1811523c-1.0236435-0.8209763-0.6239853-3.758667-0.5401688-6.6809235
							c0.0413055-1.4409103-0.041153-2.9396515,0.194252-4.3661804
							C70.8574448,89.9904175,70.9616852,89.6143112,71.2593231,89.2340775z" style="fill:#fefeea"></path>
            </g>
            <g>
              <path d="M31.1176529,25.320879c0.8953362-0.003418,6.128231,0.9806423,6.959343,1.3580322
							c1.6562271,3.7563725,2.585125,7.1070995,5.2219238,13.4172535c0.3138771,0.7514992,0.7856827,1.5471497,0.9521599,2.335537
							c-0.7225685-0.6611938-4.4462051-5.8652115-4.947361-6.5657158c-0.6552277-0.9161301-1.362442-1.7949486-2.0286407-2.7031021
							C36.8402824,32.5702057,34.9051857,29.559433,31.1176529,25.320879z" style="fill:#fefeea"></path>
            </g>
            <g>
              <path d="M43.6305962,36.7067795l1.6044006,0.8175812
							c1.3232841,3.6189499,2.9461975,7.1110077,4.6799126,10.5510902c0.3446312,0.6837158,1.9414864,3.288414,2.0040054,3.7812958
							c0.1089592,0.8251534,1.084465,2.1654015,1.6435661,3.1287689c1.3693275,2.3798752,2.7674713,4.7427101,4.1944313,7.0885086
							c0.6031075,1.003994,1.1080971,2.0930138,1.7624741,3.0611229c0.7213364,1.0671997,0.9852066,1.1422729,3.5592804,1.7040939
							c8.3458481,1.8531723,18.7706985,0.7252579,22.0640182-0.6446991c0.4090042-0.1700363,0.656662-0.3476257,0.9235382-0.696106
							c0.8197174-1.0705032,1.3171539-2.3906517,1.9826508-3.5621262c2.5662384-4.5168495,5.2056808-9.0227318,7.2287674-13.819561
							c0.4471741-0.4935989,0.7535019-1.4742393,1.0435944-2.0863228c0.6555176-1.3828087,1.3892136-2.7281647,1.9984512-4.1327629
							c0.5827484-1.3430786,1.0337677-2.763916,1.6898575-4.0705376l1.2700119-0.5848808
							c-0.3615799,1.2089272-0.8657074,2.3987694-1.3413696,3.566967
							c-4.3990784,10.7556381-8.6621017,17.5319862-11.376503,22.4989433
							c-1.3102798,2.3962364-1.4866791,3.1759529-4.2496872,4.1609688
							c-6.0930481,2.1724701-15.1237564,1.8333969-21.372036,0.4127045
							c-1.0603943-0.2411041-2.3744202-0.4508743-3.3515015-0.9278107c-0.9756584-0.4762192-1.9454765-2.8416672-2.5342064-3.821312
							c-1.963871-3.2680435-6.5830956-11.3814125-6.9280052-12.0372887
							C48.3131523,47.6477432,44.9131966,40.3774529,43.6305962,36.7067795z" style="fill:#fefeea"></path>
            </g>
            <g>
              <path d="M52.8333321,60.8131142l0.0875854,0.012394c-0.3003426,0.2495003-0.9691048,0.3645706-1.3558922,0.508831
							c-5.614048,2.0955391-7.5886078,5.8382149-2.5068588,9.0772743c1.4167023,0.9030304,3.0606918,1.4584351,4.6515656,1.9732437
							c13.9576645,4.517334,39.0809097,2.893364,43.4014511-3.9722595c0.4562912-0.7250214,0.6509705-1.5763474,0.4401932-2.4162903
							c-0.4847641-1.9316635-2.6051178-3.0656853-4.3724442-3.5937462c-0.5884247-0.175808-1.6487961-0.2806129-1.7328491-0.7045059
							c0.4935074-0.3472137,3.1650162,0.779705,3.6381683,1.0136833c1.5717926,0.77742,3.3334122,1.968689,3.9002151,3.7273254
							c0.3180008,0.9861908,0.1918259,2.0317764-0.287529,2.9417801c-1.4505997,2.7537994-6.5509109,4.3691711-9.4015427,5.2317505
							c-10.33461,3.1267776-30.1208115,2.9038391-41.029892-3.0280838
							c-1.3546104-0.7365494-2.9138718-1.7805634-3.3542061-3.3509293c-0.2950745-1.0525589,0.0323257-2.2431183,0.566227-3.1693573
							C46.928833,62.5466843,50.1985893,61.5362778,52.8333321,60.8131142z" style="fill:#fefeea"></path>
            </g>
            <g>
              <path d="M111.2991714,28.9982147c6.4108276-0.288805,9.1794739,1.2761383,9.7735214,7.6836433
							c0.1744461,1.8815308-0.2491531,6.0474968-0.6184921,7.9006767
							c-0.9060135,4.5447617-3.1442871,10.1258469-6.1431808,13.7074852
							c-3.4618683,4.1346207-8.4237595,6.9550667-13.8289566,7.4284401
							c-0.7291489-1.9094467-2.0273666-2.8204498-3.6868896-3.8955078c1.6014175-0.0746269,3.2277527-0.4336433,4.7838821-0.8037682
							c3.8764191-0.955719,6.5021896-2.7765884,8.9879761-5.8526611c2.1947479-2.7160645,3.8441925-5.5035973,4.8271637-9.3182373
							c0.5686798-2.2035446,1.0313568-6.5154953,0.5911484-8.3336067c-0.3591537-1.4839249-1.5200958-2.0890274-2.716629-2.8185997
							c3.3273087,0.0824699,3.2521744,0.9591789,4.1559753,1.1889915l0.0885849-0.0544014
							c-0.0097809-0.6161728-1.3152542-1.739872-1.8933563-2.0652466c-3.125206-1.7587738-8.7465973,0.1199112-11.9838867,1.0948563
							c0.2926559-1.0441551,0.7505112-2.0182495,1.1224899-3.0333538c0.2717972-0.7419701,0.5543823-2.0629349,1.0109711-2.4479046
							C106.2113876,29.0067596,110.4279022,29.0296898,111.2991714,28.9982147z" style="fill:#fefeea"></path>
            </g>
            <g>
              <path d="M40.2446327,28.5869312c0.777092,0.311573,1.0191078,0.9640427,2.5904541,1.7715931
							c10.8115616,5.5578766,34.3026772,6.2284889,46.2838554,4.6064262
							c4.1369019-0.5601044,8.1771011-1.6370125,12.1433868-2.9113083c-0.2470016,0.6195831-0.8046188,1.762352-0.4554291,2.2334328
							l0.1412735-0.0236397c0.6663361-0.5773354,0.7423782-1.6418571,0.807045-2.4678402
							c0.0101089-0.0328979,1.1842804-0.6513882,1.3217163-0.7268658c-0.1463776,1.5120544-0.6418457,3.0037575-0.9820709,4.1555519
							c-9.6234665,4.7963562-20.1785431,5.9042702-30.8332596,5.6394768
							c-7.3981133-0.1839943-13.6197624-0.7583427-20.7799034-2.8228722
							c-2.5709419-0.7412491-5.2541084-1.5858879-7.4775734-3.1199379
							C42.2033043,32.7578201,41.283474,30.6464806,40.2446327,28.5869312z" style="fill:#fefeea"></path>
            </g>
            <g>
              <path d="M91.9433823,53.2236061c0.4978638-0.8529015,1.0915756-1.6482658,1.5826111-2.5060081
							c0.2960739-0.5172348,1.0266418-2.252655,1.3788223-2.5369072c0.1429825-0.1154976,0.2037964-0.0858727,0.3728256-0.063942
							c-2.0230865,4.7968292-4.662529,9.3027115-7.2287674,13.819561c-0.6654968,1.1714745-1.1629333,2.4916229-1.9826508,3.5621262
							c-0.2668762,0.3484802-0.514534,0.5260696-0.9235382,0.696106
							c-3.3184967,1.3804321-13.7243805,2.4964981-22.0640182,0.6446991
							c-3.7354736-0.8153076-2.8329926-0.6221695-5.3217545-4.7652168c-1.42696-2.3457985-2.8251038-4.7086334-4.1944313-7.0885086
							c-0.5649948-0.9735222-1.5346489-2.3039322-1.6435661-3.1287689c0.5873909-0.2586327,2.9782066,0.4656563,3.8604774,0.4998589
							c1.8916435,0.0733452,3.7805824-0.4651108,5.6668167-0.5638008c3.6324806-0.1901207,6.7904396,2.3365326,10.0207481,3.6632347
							c8.6895828,3.5684509,11.118782-0.6557236,15.3939133-2.4124413
							C88.7691803,52.2596245,90.0824966,52.4456139,91.9433823,53.2236061z" style="fill:#201810"></path>
            </g>
            <g>
              <path d="M96.7082977,75.0465088c0.2206573-0.7724075,1.153595-1.5748825,1.2839432-2.2369003
							l-0.0601883-0.0602417c-2.1936646,1.4896622-2.8159103,1.8541412-6.6906738,3.0996094
							c-15.2061386,4.8188858-35.9135094,1.9886932-43.193615-2.3272018
							c0.4814682,2.066391,1.0031013,4.1929626,0.6720619,6.3195343c-0.1304092,0.8426361-0.6821022,1.7253723-0.1403885,2.3974304
							c0.9729805,1.0131454,2.146595,1.6751633,3.410511,2.2569809c4.2030067,1.9560623,8.6768684,2.4175186,13.2510109,2.7083893
							c9.4196472,0.5651627,19.8271255,0.8753128,27.9665222-2.6281204c1.0231247-0.4413681,2.2870407-0.9228363,3.099556-1.6952438
							c0.5015488-0.4714966,0.5417099-1.1234741,0.5417099-1.7755127
							C96.8487473,79.8413086,96.4675674,75.929245,96.7082977,75.0465088z M76.7064209,86.2712326
							c-0.9847488,0.5627747-1.926796,0.3851089-3.3503876,0.401207c-6.4310608,0.0275116-7.0197983-0.2002182-11.1143379-0.9528961
							c-0.9830818-0.1905975-2.0864716-0.2909393-3.0093079-0.6821671
							c-0.1504936-1.1033859-0.1504936-2.2770004-0.2207146-3.3904343c-0.1276665-2.0853577-0.327137-2.8515549-0.0300636-3.6312866
							c0.9429207-0.0300598,2.0463104,0.3009796,2.9892273,0.4514084c5.7972908,1.0426636,9.3632545,0.7650223,14.9060936,0.8426361
							C77.0260086,80.2032394,77.4601746,85.3365936,76.7064209,86.2712326z M59.8944054,79.139183l0.1103287,2.3171692
							c4.7647362,0.8927155,9.6498451,1.2036743,14.4948463,0.9228363c0.2708588-0.0200806,0.5115967,0.1905899,0.5316772,0.4714279
							c0.0100403,0.280899-0.2006302,0.5115967-0.471489,0.5316772c-4.6578827,0.2787094-9.6057434-0.0052567-14.5148735-0.9028168
							c0,0.4313278-0.0100403,1.153595,0.1604729,1.3241043c5.0054703,1.2337952,10.6529465,1.8055725,15.788826,1.3241043
							c0.0601883-1.3341446,0.1404495-2.7786179-0.0802002-4.1027222
							C72.1353302,81.0124359,63.3853722,80.0994797,59.8944054,79.139183z" style="fill:#fefeea"></path>
            </g>
            <g>
              <path d="M49.1178322,74.7548676c1.1424217,0.3154373,2.2107887,0.9759369,3.324585,1.3939133
							c1.8214378,0.6834335,3.7236214,1.1106644,5.6003113,1.607254c0.0616646,0.9387665-0.0146675,1.9127274-0.0129585,2.8564758
							c0.0022774,1.1818695,0.1868439,4.193718-0.0670776,5.1807709c-0.801918,0.3803787-5.4640465-1.5098419-6.2340393-1.8805389
							c-0.7123375-0.3427811-1.4011803-0.7176056-2.0199547-1.2121964c0.0502701-1.8024979,0.1280251-3.6999817-0.083313-5.4945068
							C49.5271225,76.3705139,49.1612701,75.5997925,49.1178322,74.7548676z" style="fill:#201810"></path>
            </g>
            <g>
              <path d="M75.9139938,81.0249634c-3.7786636-0.0125275-12.5286217-0.9254837-16.0195885-1.8857803
							l0.1103287,2.3171692c4.7647362,0.8927155,9.6498451,1.2036743,14.4948463,0.9228363
							c0.2708588-0.0200806,0.5115967,0.1905899,0.5316772,0.4714279c0.0100403,0.280899-0.2006302,0.5115967-0.471489,0.5316772
							c-4.6578827,0.2787094-9.6057434-0.0052567-14.5148735-0.9028168c0,0.4313278-0.0100403,1.153595,0.1604729,1.3241043
							c5.0054703,1.2337952,10.6529465,1.8055725,15.788826,1.3241043
							C76.0543823,83.793541,76.1346436,82.3490677,75.9139938,81.0249634z" style="fill:#201810"></path>
            </g>
            <g>
              <path d="M75.994194,85.1276855c-5.1358795,0.4814682-10.7833557-0.0903091-15.788826-1.3241043
							c-0.1705132-0.1705093-0.1604729-0.8927765-0.1604729-1.3241043
							c4.8691368,0.8902512,9.8166542,1.1839371,14.5148735,0.9028168c0.2708588-0.0200806,0.4815292-0.2507782,0.471489-0.5316772
							c-0.0200806-0.280838-0.2608185-0.4915085-0.5316772-0.4714279c-4.8450012,0.280838-9.7301102-0.0301208-14.4948463-0.9228363
							l-0.1103287-2.3171692c3.4554939,0.9505386,12.1698418,1.8730164,16.0195885,1.8857803
							C76.1346436,82.3490677,76.0543823,83.793541,75.994194,85.1276855z" style="fill:#fefeea"></path>
            </g>
            <g>
              <path d="M95.5315628,75.1036301c0.0608139,0.0119629,0.1099472,0.0549698,0.161644,0.0884399
							c0.2034683,0.6190491,0.0757141,1.7277374,0.0991135,2.7038116c0.0281982,1.179306,0.4374924,4.2603683-0.3796616,5.1175385
							c-2.0273666,2.1266327-13.2029266,3.7096634-16.3757019,3.7089539
							c-0.1512375-1.2586288-0.143692-2.5810547-0.1989517-3.8507919l-0.0596695-0.6848602
							c0.7613297-0.0314713,1.5363312-0.0948486,2.2913971-0.1979523c0.4514389-0.0616608,1.0387497-0.140274,1.3336792-0.531189
							c-0.3017731-0.1340027-1.697403,0.2101974-2.1485519,0.2475052c-0.5039902,0.0418701-1.0141144,0.0495682-1.5193863,0.0660858
							c-0.0320892-0.9040222-0.0750427-1.807579-0.1288834-2.7106476
							C89.2417297,78.2764587,92.1776047,76.1823578,95.5315628,75.1036301z" style="fill:#201810"></path>
            </g>
            <g>
              <path d="M101.8252792,17.5026588c1.4298096,0.6676216,4.0819244,1.7966557,4.6129761,3.3902359
							c0.1446838,0.4340668,0.0340347,0.8057594-0.1834183,1.1949692c-1.177887,2.1072578-4.4113312,3.6799011-6.6659851,4.3180428
							c-0.3420639,0.0968418-0.6590729,0.1899776-0.981636,0.0062675c0.0128174-0.7781334,2.0730743-2.2711697,2.112381-3.935955
							c0.0065536-0.278698-0.0657883-0.7328453-0.2993469-0.9216843c-0.1637726-0.1322994-0.2214432-0.1283112-0.4199677-0.124609
							c-0.4938812,0.2927971-0.5676498,1.0414524-0.8417892,1.5108376
							c-0.3919144,0.6706123-1.8108978,3.0887527-2.4628601,3.2439804l-0.0533981-0.1100826
							c0.0753326-1.2564926,1.8254166-3.191431,2.3130341-4.5431957c-0.77742-0.3377991-1.6476898-0.5492802-2.4634247-0.7787037
							c-12.8110962-3.6025085-36.1777992-4.3437805-48.3304443,0.4562855
							c-1.0287056,0.406435-3.7463989,1.2725677-3.8546371,2.3559055c0.2399635,0.7892399,2.098999,1.0360374,2.7586441,1.6095276
							l-0.0046997,0.0907154c-1.3532677,0.375452-4.9387932-2.0247059-5.9217339-3.0699539
							c-0.37397-0.3976116-0.6979561-1.1640663-1.1202049-1.4541588l-0.1646271,0.0773296
							c-0.0714912,0.1305923-0.123188,0.1864166-0.0965538,0.3409328c0.1993713,1.1559486,1.7983627,2.4762421,2.693985,3.1163788
							c7.2573853,5.1876488,33.445919,6.0153923,43.2868233,5.2402973
							c4.1724243-0.3286819,12.8546066-1.2341328,16.6619339-2.9513245
							c1.2246246-0.5523682,2.7145233-1.4429989,3.6481476-2.3492126c0.310318-0.3014851,1.014679-1.4228287,1.3819504-1.4830685
							c0.0676498,0.0442905,0.1521072,0.0723457,0.1778793,0.1539478c0.1758881,0.5564575-0.5853729,2.3672218-2.2431183,3.4469147
							c-3.6156769,2.3548985-13.4797058,3.9033718-18.2098083,4.3873978
							c-1.1102371,0.1078053-6.2961349,0.2648849-6.9045105,0.6549473c-0.161499,0.1035347-0.1735992,0.1693268-0.2334061,0.3405056
							l0.0803146,0.1595001c0.669754,0.4168358,2.1512604,0.225296,2.9238358,0.2046432
							c7.0289078-0.1259766,14.0049591-1.4172611,17.7519608-2.6576729c0.6549454-0.2177448,2.2940979-0.9703884,2.834549-0.9743767
							c0.1623459-0.0012817,0.1819992,0.0202236,0.2915115,0.1261768c0.0274887,0.193964,0.0561066,0.2503586-0.0895767,0.4080086
							c-0.536171,0.5807533-2.1790237,1.1045399-2.9597244,1.3919258
							c-7.6067429,2.8003674-15.9662628,3.6076946-24.025444,3.6420155
							c-8.8243561,0.0375977-31.0115585-1.1352997-37.3180885-7.3875694
							c1.6928406,0.618351,3.3499298,1.3506279,5.0639915,1.9075966c6.2556877,2.0330601,14.3906288,3.317749,20.990242,3.4996071
							c1.3459244,0.0371704,2.6915665-0.0212173,4.0362091-0.0670757c0.8209686-0.0279198,2.9598846,0.2315464,3.1310501-0.5544052
							c-0.3768158-0.6442661-3.8818359-0.7072124-4.7294693-0.7752838
							c-24.9312286-2.0012016-22.9643097-4.5104599-33.1898766-6.7742081
							c-3.315855-0.7340927-5.0649757-0.2681446-5.5221291-0.6491089c0.1455498-0.9531651,3.6883659-1.2536259,4.9600296-1.5269299
							c4.7390327-1.0268154,6.2917557-3.1408463,9.9800186-4.6341972
							C59.6993561,10.7906494,89.9192505,11.9444227,101.8252792,17.5026588z" style="fill:#fefeea"></path>
            </g>
            <g>
              <path d="M37.1097374,21.5689182c0.4814644-0.0436192,0.7591057-0.105505,0.9306564,0.3443508
							c-0.0763931,0.529108-0.4151421,0.6676674-0.8876457,0.7856808c-0.4552002-0.0240841-0.6862564-0.0613289-0.8920631-0.3795242
							c-0.0048447-0.1434078-0.0253487-0.190546,0.0458565-0.3218479
							C36.4731598,21.6906796,36.7988548,21.64995,37.1097374,21.5689182z" style="fill:#16100b"></path>
            </g>
            <g>
              <path d="M45.2349968,37.5243607c4.9744606,1.9945488,7.4499512,2.8292618,14.1878395,3.8334198
							c6.7482452,1.0057487,12.4906082,1.4806366,23.1877823,0.4115677
							c6.112648-0.6109238,10.9497452-1.3446312,17.3989258-3.9422226c-0.6560898,1.3066216-1.1071091,2.727459-1.6898575,4.0705376
							c-0.6092377,1.4045982-1.3429337,2.7499542-1.9984512,4.1327629
							c-0.2900925,0.6120834-0.5964203,1.5927238-1.0435944,2.0863228c-0.1690292-0.0219307-0.2298431-0.0515556-0.3728256,0.063942
							c-0.3521805,0.2842522-1.0827484,2.0196724-1.3788223,2.5369072
							c-0.4910355,0.8577423-1.0847473,1.6531067-1.5826111,2.5060081c-1.8608856-0.7779922-3.174202-0.9639816-5.0825119-0.1800079
							c-4.290947,1.7632141-6.6972046,5.9838181-15.3939133,2.4124413
							c-3.2303085-1.3267021-6.3882675-3.8533554-10.0207481-3.6632347c-1.8862343,0.09869-3.7751732,0.637146-5.6668167,0.5638008
							c-0.9313698-0.0361061-3.2590637-0.7646637-3.8604774-0.4998589c-0.0625191-0.4928818-1.6593742-3.09758-2.0040054-3.7812958
							C48.1811943,44.6353683,46.5582809,41.1433105,45.2349968,37.5243607z" style="fill:#f9b43b"></path>
            </g>
            <g>
              <path d="M48.8503838,84.3268814c0.6322174,0.2807159,2.0881538,1.4919891,3.6310539,2.1750412
							c3.205101,1.4185562,6.4742889,1.8064804,9.9051094,2.2881088c6.6437187,0.9324799,5.5282707,0.5675812,6.8029747,0.5366058
							c0.8486252,0.6636429,0.1923981,9.6976242,0.3524704,11.1614609c0.0412979,0.3776855,0.1147842,0.8034897,0.384079,1.0908737
							c0.7775955,0.8298035,3.5511627,1.2437363,4.7360153,0.1200562c0.1854248-0.1757355,0.2949448-0.3190079,0.3446426-0.5740585
							c0.2224426-1.1395721,0.1152039-2.419281,0.1592178-3.5847702c0.1219025-2.7221375,0.2083893-5.4453659,0.2594604-8.169693
							c5.3570786-0.1563644,11.1245804-0.341217,16.2023926-2.2406921c1.4565735-0.5450134,2.8587494-1.3114624,4.2498245-2.0052872
							c0.7278671,1.360733,1.2210388,2.7942429,1.8295593,4.2056732c0.4379044,1.0158234,0.955719,2.0000229,1.4115753,3.0088654
							c0.5019913,1.111084,0.9437561,2.2489471,1.4463272,3.3594742c0.7425308,1.6360474,5.3569183,11.7736893,5.9157486,13.4368973
							c1.7929611,5.3361511-1.7526474,8.9039688-5.7314682,11.7923431
							c-0.4226761,0.3067627-1.4070206,0.7871094-1.6200714,1.2173386l0.0863037,0.0639343
							c0.1622009,0.0007172,0.3074646-0.0002823,0.4668274-0.0358887c1.3943405-0.3114471,4.5176926-2.8252869,5.5006256-3.868454
							c0.624321-0.6624908,1.1342926-1.3836517,1.6456909-2.1325989c-0.5140991,2.5188217-1.7112045,4.3321381-3.7248993,5.8953934
							c-1.6897049,1.3115997-3.980957,2.122345-5.9912338,2.8204498c-7.0053329,2.4326553-14.8860779,4.0292206-22.2951508,4.386673
							c-7.8203278,0.3774261-12.2738571-1.0223694-18.0888977-1.772438
							c-5.0799675-0.6555481-11.1452446-0.694725-13.4363327-4.2855759c1.6045418,0.5635223,2.9950447,1.2771454,4.6780586,1.757637
							c3.9573135,1.1297455,7.9630508,1.4985886,12.0177765,2.0683823
							c4.9783134,0.6994171,14.7487373,3.6780396,31.7696114-1.319725c1.0303421-0.3024902,3.8799896-1.1553802,4.6386108-1.7385559
							l-0.0234985-0.05896c-0.5869446-0.2374802-2.6487656,0.4805222-4.0078659,0.7785645
							c-1.4000473,0.3071823-2.8149033,0.548996-4.2173615,0.8457718c-2.6851807,0.5684433-3.9636383,0.9555511-7.1255417,1.3896484
							c-12.1829834,1.6724396-20.3986168-0.6946716-25.8383293-1.6036835
							c-3.584343-0.5989838-9.7339363-1.5458755-12.7408028-3.6383133c-0.5579681-0.3883667-1.0611038-0.9150009-1.5716438-1.367157
							c-1.8212967-1.6126556-3.1264954-2.8308411-3.5726662-5.3532181
							c-0.4162674-2.3532104,0.2254333-5.2254944,0.9028854-7.5005112
							c1.1961823-4.0162125,5.6536407-13.3722382,7.5167389-17.1195068
							C46.6599579,88.442276,47.6532784,86.0372391,48.8503838,84.3268814z" style="fill:#fefeea"></path>
            </g>
            <g>
              <path d="M76.1797714,94.7631836c2.7691345-0.0192413,8.695343,0.5254593,10.3468628,0.7742844
							c3.8271561,0.5763397,11.5041046,2.3650208,14.6555099,4.7103958c0.3734055,0.2778397,0.9187012,0.7020798,0.9745255,1.194252
							c0.0441437,0.3882141-0.3564529,0.7440948-0.5898666,1.0216599l-0.378952,0.3765335
							c-7.1496506-3.8107452-22.0963898-5.5939178-24.9804611-4.9097672
							C76.2166519,96.8749924,76.1777725,95.8190231,76.1797714,94.7631836z" style="fill:#201810"></path>
            </g>
            <g>
              <path d="M68.0220413,94.8039093c0.2324066-0.0374527,0.4139862-0.0646515,0.6461105-0.0166626
							c0.2224503,0.4565735-0.0390167,2.7599258-0.0645065,3.4383774c-2.4665604,0.0046921-4.917881,0.2473679-7.3600883,0.5858765
							c-2.5404663,0.3520432-13.9611168,2.5454483-15.5109749,4.0147095l0.0546837,0.0751953
							c1.4149971,0.0917053,5.5926208-1.4709702,7.3179359-1.9168549c3.392086-0.8766861,12.0895538-2.2312927,15.4256744-1.9303818
							c0.2600403,0.299057-0.5998383,1.1989594-0.6041107,1.6700516c-0.026947,3.0148087,6.4516068,3.9530258,8.5285721,1.7176132
							c0.6342926-0.6825714,0.7171707-1.4242477,0.6768723-2.3093262c-0.256485-0.5019989-0.9486008-0.963562-0.9797821-1.5387573
							l0.0741959-0.065361c2.6404266-0.3024902,15.1271973,1.1903992,21.1659698,3.3053589
							c1.1617889,0.4070053,2.2117844,0.9050217,3.211937,1.6246185c-3.0046463,2.877037-6.9497147,3.9644775-9.2389145,4.696434
							c-7.1229706,2.2775726-14.7423859,3.7345886-22.2430267,3.3280029
							c-7.6685448-0.4156952-16.6244888-2.4799423-22.8511276-7.1789398
							c-0.7174492-0.5414276-2.6099434-1.7628403-2.5376205-2.510849c0.2839699-0.3524628,5.8499603-1.9749527,6.7638092-2.4249725
							l0.0894394-0.0447159c-0.5712128-0.0610962-1.0686531-0.0516968-1.631321,0.0563965
							c-2.5201721,0.4844055-5.152195,1.7848892-5.2699165,1.8264236c-0.6497459,0.2289963-0.9734116-0.4003525-0.618206-0.909874
							c0.2922287-0.4191132,1.8516235-0.9676743,2.339241-1.1684799
							C54.28759,95.4707413,65.8771667,95.0864792,68.0220413,94.8039093z" style="fill:#201810"></path>
            </g>
            <g>
              <path d="M42.1761513,101.772789c0.5880165,0.1123657,1.2741508,1.1623688,1.7085075,1.5911636
							c5.2526855,5.1861801,12.6973648,7.055748,19.7791748,8.0633087
							c9.8866577,1.4067383,16.5377655,0.9267349,26.139679-1.8157425c2.5034409-0.7150421,4.976265-1.4607086,7.2575455-2.7463913
							c2.1781845-1.2275848,3.975975-2.8403854,5.7266388-4.6062851c1.1485977,4.8758545,6.5083542,9.2953491,0.8628616,15.3480606
							c-1.8093262,1.7237473-4.2236176,3.209938-6.4979248,4.2476883c-1.3490601,0.6155014-2.7791595,1.068367-4.187027,1.5304947
							c-6.5652924,2.1550064-12.9591141,3.1943893-18.7915573,3.3281403
							c-6.1425095,0.140564-10.1254959-0.6783524-15.7703056-1.6502533
							c-4.7926979-0.8254166-13.2947807-1.9053192-17.0521545-5.029953
							c-1.4971657-1.2451096-2.2975159-3.4328232-2.4776611-5.3209076
							C38.3970833,109.7107773,41.4898148,102.6074219,42.1761513,101.772789z" style="fill:#201810"></path>
            </g>
            <g>
              <path d="M50.3569527,116.1301041c0.2211609-0.0125351,0.4695282-0.0384521,0.6891251-0.0041275
							c1.1205254,0.1756668,2.1117058,1.9543991,0.6385727,2.9120178c-0.2213097,0.0509796-0.4454651,0.0756226-0.6669121,0.0122452
							c-0.8516121-0.2435837-1.6037979-1.368187-1.3412285-2.2310104
							C49.789444,116.4478226,50.0282669,116.3025589,50.3569527,116.1301041z" style="fill:#fefeea"></path>
            </g>
            <g>
              <path d="M70.0410004,121.81073c1.2896347,0.6391525,1.4296341,2.5813141-0.2708664,3.2156448
							c-0.4320755,0.013382-0.8848038,0.0650787-1.2861176-0.1274643c-0.9461288-0.4541855-1.1203995-1.7380142-0.6670532-2.5428848
							C68.2763138,121.5408249,69.3253174,121.4566269,70.0410004,121.81073z" style="fill:#fefeea"></path>
            </g>
            <g>
              <path d="M68.652916,122.2997742c0.1794434-0.0098343,0.3880692-0.0301971,0.5517044,0.0626602
							c0.1445465,0.0820236,0.243515,0.2026443,0.261322,0.370842c0.0246353,0.2326889-0.0998306,0.4198227-0.2197418,0.6052399
							c-0.2037888,0.0552597-0.2989197,0.086586-0.5078354,0.0207977c-0.0824585-0.0764771-0.1546555-0.11763-0.1902618-0.228714
							C68.4548264,122.8390808,68.5381317,122.5699234,68.652916,122.2997742z" style="fill:#16100b"></path>
            </g>
            <g>
              <path d="M47.1188087,110.7580795c0.3434219,0.9901352-0.1385612,2.2935486-1.6798782,2.8113251
							c-1.7880707,0.146965-2.8304901-1.3079529-2.3641663-2.6766129
							C43.6998863,109.0605469,46.4785728,108.9384842,47.1188087,110.7580795z" style="fill:#fefeea"></path>
            </g>
            <g>
              <path d="M44.8799667,110.0646744c0.3544044-0.0166702,0.664032-0.0089951,0.922966,0.346344
							c0.1570816,0.2158966,0.1805763,0.4813538,0.1206207,0.7344131c-0.0901451,0.3803787-0.3077507,0.5549698-0.6240425,0.7591934
							c-0.3344345,0.0196686-0.6249046,0.0323944-0.8610191-0.2469406
							C44.1531258,111.3216782,44.1531754,110.6204376,44.8799667,110.0646744z" style="fill:#201810"></path>
            </g>
          </g>
          <g>
            <path d="M42.6294403,19.598074c4.5018463-2.9840164,11.069355-4.9657383,16.5934448-4.900281
						C49.7399101,17.2197495,52.9481392,16.2336369,42.6294403,19.598074z" style="fill:#201810"></path>
          </g>
          <g>
            <path d="M71.7753143,14.6452627c4.0661316-0.9469585,9.4904861-1.0686388,13.2102051,0.8713531
						C78.8757095,14.7430239,75.4367218,15.0977221,71.7753143,14.6452627z" style="fill:#201810"></path>
          </g>
          <g>
            <path d="M92.3791351,16.5449829c2.3855896-0.4103107,5.6901016,0.3277149,7.6853638,1.8805103
						C98.0781631,18.2697449,94.2432251,17.3544579,92.3791351,16.5449829z" style="fill:#201810"></path>
          </g>
          <g>
            <path d="M101.8331146,19.8761272c1.0575104-0.6018734,2.5003204,0.6187496,2.0735474,1.7611313
						C103.0695801,21.1521492,102.5098877,20.6952019,101.8331146,19.8761272z" style="fill:#201810"></path>
          </g>
          <g>
            <path d="M56.7937469,27.2467327c-1.521553-0.4681702-3.2078285-1.9696083-3.8416748-3.4315643
						C54.4744644,24.2801743,56.1569138,25.7860241,56.7937469,27.2467327z" style="fill:#fefeea"></path>
          </g>
          <g>
            <path d="M59.781723,27.0119648c-1.4738121-1.2834854-2.8707924-3.7888317-3.1800537-5.7198219
						C58.077877,22.5732059,59.4691811,25.0815067,59.781723,27.0119648z" style="fill:#fefeea"></path>
          </g>
          <g>
            <path d="M68.8014374,28.030817c-1.2516251-1.7880821-2.2432556-4.9063129-2.2327881-7.1228409
						C67.825592,22.6976223,68.8084717,25.8186474,68.8014374,28.030817z" style="fill:#fefeea"></path>
          </g>
          <g>
            <path d="M70.1329193,25.6460361c-0.9515152-1.3876324-1.4225616-3.7537518-1.0667114-5.3996811
						C70.0203781,21.6322269,70.485466,23.9994221,70.1329193,25.6460361z" style="fill:#fefeea"></path>
          </g>
          <g>
            <path d="M76.3862762,23.8151684c-0.4820938-1.0185089-0.2233353-2.4197102,0.6044922-3.1940498
						C77.4774246,21.6423378,77.2088394,23.041811,76.3862762,23.8151684z" style="fill:#fefeea"></path>
          </g>
          <g>
            <path d="M77.8589325,28.3123646c-0.2192535-2.4683094,0.442955-6.1660881,1.5410156-8.4301605
						C79.6217346,22.3407784,78.9581528,26.0377369,77.8589325,28.3123646z" style="fill:#fefeea"></path>
          </g>
          <g>
            <path d="M84.6031952,27.60956c0.147171-2.0940533,1.3319473-4.9674301,2.7105103-6.5521851
						C87.1699066,23.1517048,85.9791946,26.0226002,84.6031952,27.60956z" style="fill:#fefeea"></path>
          </g>
          <g>
            <path d="M87.8686371,26.8508015c-0.050705-1.6171722,0.8253784-3.7462101,2.0061646-4.854351
						C89.9287491,23.6135159,89.0472183,25.7402706,87.8686371,26.8508015z" style="fill:#fefeea"></path>
          </g>
          <g>
            <path d="M56.2562714,47.4049454c-0.8525391-0.6616211-1.4599609-1.6484375-1.6660156-2.7070313
						c-0.0559998-0.2966042,0.1581535-0.5704346,0.4521484-0.59375c2.1909676-0.1735039,4.4526939,0.7466927,4.9794922,1.831543
						c0.4095573,0.8330078,0.183918,2.2155151-0.796875,2.3994141
						C59.0334854,48.3713264,57.2377815,48.1649208,56.2562714,47.4049454z M55.7377167,45.0817032
						c0.5345993,1.3967781,1.609024,2.0454979,3.0722656,2.2563477c0.0732269,0.0102539,0.1748047,0.0239258,0.2294922,0.0146484
						c0.1784744-0.0334663,0.2238655-0.6947403,0.0839844-0.9775391
						C58.9314308,45.9773827,57.6159019,45.1108475,55.7377167,45.0817032z" style="fill:#201810"></path>
          </g>
          <g>
            <path d="M62.8920135,45.8995743c-1.3781662-0.5691452-1.4985085-2.0624352-0.4091797-2.5180664
						c1.256134-0.5229034,2.9883194,0.7124596,2.4912109,1.9262695l-0.0009766,0.0004883
						C64.7056427,45.9583855,63.8239326,46.2828064,62.8920135,45.8995743z M64.5111542,45.117836h0.0097656H64.5111542z
						 M62.868576,44.3043594c-0.3217697,0.1372223,0.0766335,0.5354347,0.4042969,0.6708984
						c0.3974609,0.1625977,0.7294922,0.0639648,0.7753906-0.0473633l0,0
						c0.0458984-0.1108398-0.1162109-0.4150391-0.5166016-0.5800781
						C63.3268738,44.2636833,63.0596237,44.223999,62.868576,44.3043594z" style="fill:#201810"></path>
          </g>
          <g>
            <path d="M72.5911255,51.570343c0.4506454,2.2161903,3.651062,2.7944145,4.2071533,0.9021645
						c0.5437851-1.850399-1.3602295-4.2572975-1.7600021-5.9571953c-0.2072296-0.8811874-0.8382492,0.4047852-1.2543945,1.14814
						C73.1957397,48.7140198,72.350914,50.3890381,72.5911255,51.570343z" style="fill:#f9b43b"></path>
            <path d="M72.3099823,49.6754532v-0.0004883c0.0009766-0.0009766,0.0273438-0.0795898,0.0273438-0.0805664
						c0.4016953-1.1582794,0.9898148-2.1230812,1.1611328-2.4521484c0.3476944-0.6437721,0.7932663-1.5196877,1.4345703-1.4125977
						c0.2060547,0.0361328,0.4765625,0.1816406,0.5917969,0.6708984c0.3810196,1.6267509,2.3578186,4.1706429,1.7529297,6.2133789
						C76.4279556,55.5027924,70.8618469,54.0415497,72.3099823,49.6754532z M72.7845917,49.833168l0.4746094,0.1577148
						c-0.203125,0.6088867-0.2587891,1.0791016-0.1777344,1.4804688c0.3894882,1.9135742,3.6432114,2.5131493,3.2705078-0.0991211
						c-0.2153244-1.5225258-1.2384033-2.9597702-1.671875-4.2875977c-0.1285553,0.2086105-1.0325165,1.7812004-1.3964844,2.8339844
						L72.7845917,49.833168z" style="fill:#201810"></path>
          </g>
          <g>
            <path d="M101.293808,63.0628357c1.0804367-0.8641129,3.0572968-1.6549835,4.4385986-1.7672272
						C104.8710022,62.6442604,102.8295059,63.4425774,101.293808,63.0628357z" style="fill:#201810"></path>
          </g>
          <g>
            <path d="M109.0409393,59.9752655c2.9187851-3.5265846,4.2395782-5.7167091,5.9967041-10.1014099
						C115.0869675,53.7976341,112.5012283,58.139431,109.0409393,59.9752655z" style="fill:#201810"></path>
          </g>
          <g>
            <path d="M119.1205902,39.4457779c0.8894119,7.1002159-2.3705368,17.8326302-9.329895,22.2891922
						c-2.2959137,1.4797783-5.0463715,2.3368301-7.9711914,2.3175354c5.3907623-0.79422,9.6491547-3.5313721,12.8300171-8.9931412
						C117.32341,50.5511665,119.0053864,44.295002,119.1205902,39.4457779z" style="fill:#201810"></path>
          </g>
          <g>
            <path d="M107.5561371,32.0058975c1.9640198-1.0631542,5.0485229-1.1392574,7.0986938-0.1279011
						C112.8864212,32.2115974,109.3016968,32.2614746,107.5561371,32.0058975z" style="fill:#201810"></path>
          </g>
          <g>
            <path d="M119.6088715,34.7638321c-0.3954468-1.244957-1.2216187-2.2361679-2.166626-2.9890156
						c-2.4117966-1.9427624-6.3069687-1.0328445-10.9969482-1.2611885c2.6854935-0.699995,7.2399292-1.5272274,9.7805786-0.4826317
						C118.0867386,30.8183002,119.5977783,32.7642479,119.6088715,34.7638321z" style="fill:#201810"></path>
          </g>
          <g>
            <path d="M49.458786,64.3803482c-0.8135452,0.7119904-1.0258827,2.0353317,0.0483398,3.4168549
						c0.8071671,1.0962601,1.9547157,1.905159,3.1325073,2.5976105c-2.3402405,0.0590591-4.9150047-2.1296768-4.6374512-4.2923584
						C48.0939178,65.2813568,48.687851,64.4856567,49.458786,64.3803482z" style="fill:#fefeea"></path>
          </g>
          <g>
            <path d="M51.9332733,65.8121643c0.7401619-0.0434036,1.4406929,0.3033752,1.8499756,0.9226532
						C53.057003,67.0685272,52.1097946,66.6098099,51.9332733,65.8121643z" style="fill:#f9b43b"></path>
          </g>
          <g>
            <path d="M55.7233124,68.2482834c1.0701141,0.2582474,3.2716751,1.1505508,4.2264404,1.7211685
						C58.4699631,70.2711868,56.5669746,69.4862213,55.7233124,68.2482834z" style="fill:#f9b43b"></path>
          </g>
          <g>
            <path d="M63.1336517,71.4421005c1.1719513-0.1595535,3.6531906-0.1166992,4.8220215,0.0889206
						C66.596199,72.3273849,64.453949,72.2787933,63.1336517,71.4421005z" style="fill:#f9b43b"></path>
          </g>
          <g>
            <path d="M71.7813568,72.415741c0.9955139-0.2786865,2.9199753-0.4445038,3.9555664-0.3330612
						C74.7376022,72.9789429,72.9045181,73.1212463,71.7813568,72.415741z" style="fill:#f9b43b"></path>
          </g>
          <g>
            <path d="M80.6587372,71.2309341c0.8526077-0.4990158,2.5021973-0.9644165,3.454834-1.0610809
						C83.4551926,71.2214203,81.8126221,71.6847,80.6587372,71.2309341z" style="fill:#f9b43b"></path>
          </g>
          <g>
            <path d="M87.4742279,68.3159866c0.6863403-0.3432922,1.8980408-0.7513123,2.6586914-0.8885956
						C89.8346176,68.4656067,88.33564,68.9616547,87.4742279,68.3159866z" style="fill:#f9b43b"></path>
          </g>
          <g>
            <path d="M92.9717255,64.420578c0.8863831,0.3253708,1.1637115,1.6689987,0.4710083,2.3148117
						C93.1012726,66.0345383,92.9342117,65.1852188,92.9717255,64.420578z" style="fill:#f9b43b"></path>
          </g>
          <g>
            <path d="M55.8712616,54.269371c0.9238434-0.1230164,2.4688301,0.0039825,3.3721313,0.2884216
						C58.2355194,54.9400558,56.7804832,54.8034706,55.8712616,54.269371z" style="fill:#f9b43b"></path>
          </g>
          <g>
            <path d="M61.8682098,56.2499847c0.7687225-0.1918068,1.9957161-0.1578789,2.7700806,0.0945053
						C63.8402328,56.7659264,62.6200333,56.7127495,61.8682098,56.2499847z" style="fill:#f9b43b"></path>
          </g>
          <g>
            <path d="M59.7223358,59.6444931c0.8511276-0.0678368,2.7290421-0.0104218,3.5852051,0.1533661
						C62.2596397,60.2931137,60.7071762,60.2449493,59.7223358,59.6444931z" style="fill:#f9b43b"></path>
          </g>
          <g>
            <path d="M66.7833099,60.249733c0.6523285-0.258709,1.6633301-0.2991257,2.3492432-0.0737686
						C68.4923401,60.6222687,67.4416046,60.6474113,66.7833099,60.249733z" style="fill:#f9b43b"></path>
          </g>
          <g>
            <path d="M62.7596283,64.1344757c0.8283463,0.0011292,2.5424347,0.2430878,3.3391113,0.4750137
						C65.076416,65.0232925,63.612278,64.8034058,62.7596283,64.1344757z" style="fill:#f9b43b"></path>
          </g>
          <g>
            <path d="M68.3201141,65.3103333c0.6806641-0.2370071,1.7208176-0.2172318,2.411438,0.0739365
						C70.0397644,65.7685776,68.9750595,65.7262573,68.3201141,65.3103333z" style="fill:#f9b43b"></path>
          </g>
          <g>
            <path d="M72.0149384,61.2216415c0.5890656-0.2010078,1.6107101-0.3250427,2.267334-0.253067
						C73.7477646,61.5600395,72.6595688,61.6732216,72.0149384,61.2216415z" style="fill:#f9b43b"></path>
          </g>
          <g>
            <path d="M77.1334686,60.312233c0.734993-0.2757835,2.2973404-0.6100121,3.1032715-0.6536942
						C79.479332,60.3797188,78.0998611,60.6579094,77.1334686,60.312233z" style="fill:#f9b43b"></path>
          </g>
          <g>
            <path d="M79.8434906,64.3061905c0.6203308-0.2125931,2.3103561-0.6008568,2.9629517-0.6778641
						C82.1323624,64.3955688,80.7776184,64.6989212,79.8434906,64.3061905z" style="fill:#f9b43b"></path>
          </g>
          <g>
            <path d="M83.792099,59.627533c0.727623-0.2762375,2.0814285-0.5055161,2.8809204-0.4747162
						C85.9537735,59.7890663,84.6682968,59.993187,83.792099,59.627533z" style="fill:#f9b43b"></path>
          </g>
          <g>
            <path d="M87.3367157,55.1067581c0.649147-0.1902924,1.9676208-0.3642502,2.6466064-0.3450089
						C89.3457794,55.4123497,88.1108856,55.5644188,87.3367157,55.1067581z" style="fill:#f9b43b"></path>
          </g>
          <g>
            <path d="M80.1326752,80.6677017c1.1989517-0.5371628,3.1118469-0.7129211,4.3876343-0.3962402
						C83.408226,81.2954636,81.3710861,81.4472961,80.1326752,80.6677017z" style="fill:#fefeea"></path>
          </g>
          <g>
            <path d="M48.9013062,87.6994247c-0.3677826-0.1444473-0.0273819-1.010994,0.3403473-0.8665619
						C49.3951454,86.8931427,49.2690392,87.8438492,48.9013062,87.6994247z" style="fill:#201810"></path>
          </g>
          <g>
            <path d="M47.8515625,90.9084625c-0.3810081-0.1026611-0.0151253-1.461731,0.366169-1.3589935
						C48.3769569,89.5923767,48.2328568,91.0112,47.8515625,90.9084625z" style="fill:#201810"></path>
          </g>
          <g>
            <path d="M46.6298218,93.91539c-0.3810081-0.1026611-0.0151253-1.4617233,0.366169-1.3589859
						C47.1552162,92.5993042,47.011116,94.0181274,46.6298218,93.91539z" style="fill:#201810"></path>
          </g>
          <g>
            <path d="M51.2028618,88.2781525c-0.3677826-0.1444473-0.0273819-1.010994,0.3403511-0.8665619
						C51.696701,87.4718704,51.5705948,88.4225845,51.2028618,88.2781525z" style="fill:#201810"></path>
          </g>
          <g>
            <path d="M54.2820511,90.1163864c0.2251434,0.5732346,0.781105,0.3552399,0.5558395-0.2183075
						C54.6127472,89.3248367,54.0567856,89.5428314,54.2820511,90.1163864z" style="fill:#201810"></path>
          </g>
          <g>
            <path d="M57.053215,90.2084122c0.3677826,0.1444473,0.7080803-0.7221375,0.3403473-0.8665619
						C57.2400742,89.2815628,56.685482,90.0639801,57.053215,90.2084122z" style="fill:#201810"></path>
          </g>
          <g>
            <path d="M59.1716537,89.7539825c0.3677826,0.1444473,0.7080803-0.7221375,0.3403473-0.8665619
						C59.1442184,88.7429657,58.8039207,89.6095505,59.1716537,89.7539825z" style="fill:#201810"></path>
          </g>
          <g>
            <path d="M61.1020775,91.6347961c0.3677864,0.144455,0.7080803-0.7221298,0.3403473-0.8665619
						C61.2889366,90.7079544,60.7343445,91.4903717,61.1020775,91.6347961z" style="fill:#201810"></path>
          </g>
          <g>
            <path d="M66.1832581,93.6606216c-0.4110336,0.161438-0.7913513-0.8070602-0.3803711-0.9684753
						C65.9744263,92.6247787,66.5942383,93.4992065,66.1832581,93.6606216z" style="fill:#201810"></path>
          </g>
          <g>
            <path d="M64.9827423,94.0914917c-0.4110413,0.161438-0.7913589-0.8070602-0.3803787-0.9684753
						C65.0134048,92.9615784,65.3937149,93.9300766,64.9827423,94.0914917z" style="fill:#201810"></path>
          </g>
          <g>
            <path d="M60.4105263,94.4185867c0.4110374,0.161438,0.7913551-0.8070526,0.3803749-0.9684677
						C60.6193619,93.3827438,59.9995499,94.2571716,60.4105263,94.4185867z" style="fill:#201810"></path>
          </g>
          <g>
            <path d="M57.4135742,94.7464676c-0.4110336,0.161438-0.7913513-0.8070602-0.3803711-0.9684753
						C57.2047424,93.7106171,57.8245544,94.5850525,57.4135742,94.7464676z" style="fill:#201810"></path>
          </g>
          <g>
            <path d="M50.6245079,90.885376c-0.2419586,0.8980026-0.8214684,0.7533951-0.5766106-0.155365
						C50.289856,89.832016,50.8693657,89.9766159,50.6245079,90.885376z" style="fill:#201810"></path>
          </g>
          <g>
            <path d="M48.9313774,94.4941177c-0.3810043-0.1026535-0.0151253-1.4617233,0.366169-1.3589859
						C49.4567719,93.1780319,49.3126755,94.5968552,48.9313774,94.4941177z" style="fill:#201810"></path>
          </g>
          <g>
            <path d="M45.4792824,96.9415054c-0.474987-0.1279831-0.1094856-1.4871445,0.366169-1.3589859
						C46.3204384,95.7105026,45.954937,97.069664,45.4792824,96.9415054z" style="fill:#201810"></path>
          </g>
          <g>
            <path d="M52.1384201,90.6136475c0.3810081-0.1026611,0.0151253-1.461731-0.366169-1.3589935
						C51.391243,89.3573151,51.7571259,90.7163773,52.1384201,90.6136475z" style="fill:#201810"></path>
          </g>
          <g>
            <path d="M52.5541344,93.8321762c0.3907661-0.0548401,0.1954346-1.4486771-0.1956253-1.3937912
						C52.1952057,92.4613037,52.1630745,93.8870621,52.5541344,93.8321762z" style="fill:#201810"></path>
          </g>
          <g>
            <path d="M55.9323311,93.5023575c-0.3907623-0.0548477-0.1954308-1.4486771,0.1956291-1.3937912
						C56.2912636,92.131485,56.323391,93.5572433,55.9323311,93.5023575z" style="fill:#201810"></path>
          </g>
          <g>
            <path d="M62.415081,94.1298218c-0.3907661-0.0548477-0.1954346-1.4486771,0.1956253-1.3937912
						C62.7740097,92.7589493,62.8061409,94.1847076,62.415081,94.1298218z" style="fill:#201810"></path>
          </g>
          <g>
            <path d="M54.3002548,95.2351685c-0.4110451,0.161438-0.7327156-0.6577988-0.3217506-0.8192139
						C54.1500473,94.3485794,54.7112236,95.0737534,54.3002548,95.2351685z" style="fill:#201810"></path>
          </g>
          <g>
            <path d="M95.4389191,87.6994247c0.3677826-0.1444473,0.0273819-1.010994-0.3403473-0.8665619
						C94.7307816,86.9773102,95.0711823,87.8438492,95.4389191,87.6994247z" style="fill:#201810"></path>
          </g>
          <g>
            <path d="M96.4886627,90.9084625c0.3810043-0.1026611,0.0151215-1.461731-0.3661728-1.3589935
						C95.7414856,89.6521301,96.1073685,91.0112,96.4886627,90.9084625z" style="fill:#201810"></path>
          </g>
          <g>
            <path d="M97.7104034,93.91539c0.3810043-0.1026611,0.0151215-1.4617233-0.3661728-1.3589859
						C96.9632263,92.6590652,97.3291092,94.0181274,97.7104034,93.91539z" style="fill:#201810"></path>
          </g>
          <g>
            <path d="M93.1373596,88.2781525c0.3677826-0.1444473,0.0273819-1.010994-0.3403473-0.8665619
						C92.6435242,87.4718704,92.7696304,88.4225845,93.1373596,88.2781525z" style="fill:#201810"></path>
          </g>
          <g>
            <path d="M89.6100769,90.4405136c-0.3677826-0.144455-0.0273819-1.010994,0.3403473-0.8665619
						C90.10392,89.6342316,89.9778061,90.584938,89.6100769,90.4405136z" style="fill:#201810"></path>
          </g>
          <g>
            <path d="M87.2870102,90.2084122c-0.3677826,0.1444473-0.7080841-0.7221375-0.3403473-0.8665619
						C87.1001511,89.2815628,87.6547394,90.0639801,87.2870102,90.2084122z" style="fill:#201810"></path>
          </g>
          <g>
            <path d="M85.1685715,89.7539825c-0.3677826,0.1444473-0.7080841-0.7221375-0.3403473-0.8665619
						C85.1960068,88.7429657,85.5363007,89.6095505,85.1685715,89.7539825z" style="fill:#201810"></path>
          </g>
          <g>
            <path d="M83.2381439,91.6347961c-0.3677826,0.144455-0.7080765-0.7221298-0.3403473-0.8665619
						C83.0512848,90.7079544,83.6058807,91.4903717,83.2381439,91.6347961z" style="fill:#201810"></path>
          </g>
          <g>
            <path d="M83.9296951,94.4185867c-0.4110336,0.161438-0.7913513-0.8070526-0.3803711-0.9684677
						C83.7208633,93.3827438,84.3406754,94.2571716,83.9296951,94.4185867z" style="fill:#201810"></path>
          </g>
          <g>
            <path d="M86.926651,94.7464676c0.4110336,0.161438,0.7913513-0.8070602,0.3803711-0.9684753
						C87.1354828,93.7106171,86.5156708,94.5850525,86.926651,94.7464676z" style="fill:#201810"></path>
          </g>
          <g>
            <path d="M94.1871033,91.4871902c0.381012-0.1026611,0.0151291-1.4617233-0.3661652-1.3589859
						C93.6617126,90.1711044,93.805809,91.5899277,94.1871033,91.4871902z" style="fill:#201810"></path>
          </g>
          <g>
            <path d="M95.408844,94.4941177c0.3810043-0.1026535,0.0151291-1.4617233-0.3661652-1.3589859
						C94.8834534,93.1780319,95.0275497,94.5968552,95.408844,94.4941177z" style="fill:#201810"></path>
          </g>
          <g>
            <path d="M98.860939,96.9415054c0.4749908-0.1279831,0.1094894-1.4871445-0.3661652-1.3589859
						C98.2962265,95.6360168,98.3852844,97.069664,98.860939,96.9415054z" style="fill:#201810"></path>
          </g>
          <g>
            <path d="M92.2018051,90.6136475c-0.381012-0.1026611-0.0151291-1.461731,0.3661652-1.3589935
						C92.7271957,89.2975616,92.5830994,90.7163773,92.2018051,90.6136475z" style="fill:#201810"></path>
          </g>
          <g>
            <path d="M91.786087,93.8321762c-0.3907623-0.0548401-0.1954346-1.4486771,0.1956253-1.3937912
						C92.1450195,92.4613037,92.1771469,93.8870621,91.786087,93.8321762z" style="fill:#201810"></path>
          </g>
          <g>
            <path d="M88.4078903,93.5023575c0.3907623-0.0548477,0.1954346-1.4486771-0.1956253-1.3937912
						C88.0489578,92.131485,88.0168304,93.5572433,88.4078903,93.5023575z" style="fill:#201810"></path>
          </g>
          <g>
            <path d="M90.0399704,95.2351685c0.4110413,0.161438,0.7327118-0.6577988,0.3217468-0.8192139
						C90.1901779,94.3485794,89.6289978,95.0737534,90.0399704,95.2351685z" style="fill:#201810"></path>
          </g>
          <g>
            <path d="M76.4608612,91.311409c0.3532104,0.6800156,0.4055328,1.7517471,0.09552,2.4760056
						C76.1908569,93.087822,76.1618347,92.0151749,76.4608612,91.311409z" style="fill:#201810"></path>
          </g>
          <g>
            <path d="M78.3196259,91.3377533c0.3532104,0.6802139,0.4054489,1.7517929,0.095459,2.4760056
						C78.0496063,93.1142578,78.0205154,92.0414734,78.3196259,91.3377533z" style="fill:#201810"></path>
          </g>
          <g>
            <path d="M80.1783295,91.3640976c0.3532104,0.6800232,0.4055252,1.75177,0.09552,2.4759979
						C79.9083099,93.1404953,79.8793106,92.0678406,80.1783295,91.3640976z" style="fill:#201810"></path>
          </g>
          <g>
            <path d="M82.0370941,91.3904419c0.3523331,0.6785278,0.4060516,1.7503967,0.095459,2.4759979
						C81.767067,93.1669312,81.7379913,92.0941315,82.0370941,91.3904419z" style="fill:#201810"></path>
          </g>
          <g>
            <path d="M55.5227509,97.908226c1.3792496-1.0625,3.7958641-1.3924866,5.4328003-0.6879501
						C59.5217628,97.8464584,57.0691643,98.1544189,55.5227509,97.908226z" style="fill:#fefeea"></path>
          </g>
          <g>
            <path d="M77.6985321,96.4613266c4.4368286-0.8107071,10.2883148-0.1524963,14.4400024,1.6427689
						C91.0521545,98.0122375,78.7774429,96.6148529,77.6985321,96.4613266z" style="fill:#fefeea"></path>
          </g>
          <g>
            <path d="M82.618454,102.7105179c1.2480545-0.5782089,3.6807022-1.1546555,5.0579224-1.1917419
						C86.5584183,102.8735199,84.2051086,103.4115143,82.618454,102.7105179z" style="fill:#fefeea"></path>
          </g>
          <g>
            <path d="M84.9336395,105.776886c0.862114-0.4578018,5.5-2.4740906,6.3458252-2.7807541
						C90.0496445,104.9295578,87.2219696,106.1571732,84.9336395,105.776886z" style="fill:#fefeea"></path>
          </g>
          <g>
            <path d="M85.9115448,107.4488449c4.3236389-0.9648056,4.7462463-1.0992966,8.8881226-2.7690659
						C92.8047791,107.0792465,88.879631,108.2763672,85.9115448,107.4488449z" style="fill:#fefeea"></path>
          </g>
          <g>
            <path d="M75.9877777,109.3113251c2.4090958-1.360939,5.1718369-1.3433838,7.0205688-3.6505127
						C82.7908554,108.3952026,78.7517471,109.5043564,75.9877777,109.3113251z" style="fill:#fefeea"></path>
          </g>
          <g>
            <path d="M63.6315155,101.0073471c-0.6173706,0.0279541-1.2393799,0.052124-1.821228,0.1938705
						c-1.4919891,0.3555984-2.0274506,1.6049652-1.6351318,2.3319168c0.2282104,0.4487305,0.7113647,0.7844086,1.2231445,1.0677872
						c4.2438431,2.3570938,9.2439194,2.4641037,14.1405029,2.2512131c1.1887207-0.0822296,2.3903809-0.3233948,3.348938-0.9965439
						c0.9689331-0.6406479,1.7177124-1.7458572,1.6605835-3.0000839c0.2938843,1.2432861-0.392334,2.5575714-1.3612671,3.3883286
						c-1.0183716,0.8437347-2.3212891,1.1906509-3.5653076,1.3730316
						c-4.9317245,0.5781708-10.512001,0.3378143-14.6211548-2.3616409c-0.5262451-0.3521652-1.1026611-0.7755966-1.399231-1.4645081
						c-0.5152435-1.1602173,0.4020271-2.6538315,2.1605225-2.848587
						C62.3968353,100.8587952,63.0189056,100.9291,63.6315155,101.0073471z" style="fill:#fefeea"></path>
          </g>
          <g>
            <path d="M78.4985809,103.167923c-0.9958191,1.9847794-3.8768082,2.1014786-6.0792236,2.0231552
						c-2.5907593-0.1593399-4.6696777-1.2813187-5.90802-2.8008804c2.4742584,1.3959808,4.9002991,2.0567398,9.1177979,1.8346863
						C76.6457977,104.1486359,77.6624603,103.8936768,78.4985809,103.167923z" style="fill:#fefeea"></path>
          </g>
          <g>
            <path d="M64.4108734,103.3387909c0.5598373,0.5458298,1.254982,0.6469421,1.7784424,1.5280914
						C64.8726196,105.5490189,63.7395363,104.0296326,64.4108734,103.3387909z" style="fill:#fefeea"></path>
          </g>
          <g>
            <path d="M57.8543549,105.8657455c1.6492462,0.3201447,5.0138168,1.516243,6.5084839,2.325531
						C62.1667137,108.5553894,59.3140602,107.5239944,57.8543549,105.8657455z" style="fill:#fefeea"></path>
          </g>
          <g>
            <path d="M55.368576,107.2807083c4.6522675,1.2858505,5.440876,1.4402161,10.3779297,1.9542236
						C62.4766159,110.3717575,58.0283012,109.5469513,55.368576,107.2807083z" style="fill:#fefeea"></path>
          </g>
          <g>
            <path d="M48.9315643,104.1843796c1.30793-1.1729813,3.7031631-1.6443787,5.3670654-1.0293884
						C52.9205589,103.8470917,50.4854279,104.3159637,48.9315643,104.1843796z" style="fill:#fefeea"></path>
          </g>
          <g>
            <path d="M46.0845795,102.875679c6.7445107-3.5042038,15.737339-5.0331192,23.3226929-3.8974075
						C60.5693359,99.4235306,54.789875,100.3591003,46.0845795,102.875679z" style="fill:#fefeea"></path>
          </g>
          <g>
            <path d="M48.5429535,118.4144363c0.6497498,1.1422806,1.5806351,1.7673416,2.4008789,1.9300079
						c1.2069435,0.2605362,1.5945892-0.5795746,2.3009033-1.5228729c0.0905838,3.0073318-2.8856964,3.1909332-4.1935425,1.4100494
						C48.6509857,119.7049789,48.4391937,119.0346451,48.5429535,118.4144363z" style="fill:#fefeea"></path>
          </g>
          <g>
            <path d="M44.2447968,124.8677292c15.8325233,4.52285,31.6123962,5.1077805,48.072937,1.0755463
						c5.225708-1.3798904,10.9514465-2.8341293,14.126709-7.1838837c-2.8662567,4.7156143-8.9771194,6.4353333-13.9298706,7.927475
						C76.9729691,130.9818115,59.7375031,130.5976715,44.2447968,124.8677292z" style="fill:#f9b43b"></path>
          </g>
          <g>
            <path d="M59.1689301,36.9892578c3.6423225,0.0296936,6.135849,0.5427208,15.3825684,1.2423286
						C69.8838806,39.321476,63.7016335,38.4452248,59.1689301,36.9892578z" style="fill:#201810"></path>
          </g>
          <g>
            <path d="M81.4322357,53.7875519c0.8558121-0.5640984,3.7231827-2.0881882,4.6724243-2.4794846
						C85.4831161,53.0426369,83.2040634,54.2379494,81.4322357,53.7875519z" style="fill:#201810"></path>
          </g>
          <g>
            <path d="M89.1421967,44.8154106c0.6654892-1.0452728,2.1386719-2.5099716,3.2046509-3.1684341
						C92.2635269,43.2225075,90.6985321,44.747364,89.1421967,44.8154106z" style="fill:#201810"></path>
          </g>
          <g>
            <path d="M92.09758,44.8167839c0.6148453-1.0527725,1.9880829-2.5275383,2.9976807-3.2108917
						C95.1098785,43.1623192,93.6235657,44.7227554,92.09758,44.8167839z" style="fill:#201810"></path>
          </g>
          <g>
            <path d="M96.019577,43.3630562c0.2995682-1.2389259,1.2627869-2.9182816,2.1876831-3.7987633
						C98.480896,41.0691833,97.4137115,42.8570099,96.019577,43.3630562z" style="fill:#201810"></path>
          </g>
          <g>
            <path d="M77.2186737,36.9892578c0.6483536,0.6220627,0.6598434,1.5957413-0.024353,2.2206802
						C76.5441818,38.5895195,76.5365448,37.6155853,77.2186737,36.9892578z" style="fill:#201810"></path>
          </g>
          <g>
            <path d="M79.4577484,37.3816376c0.6644516,0.3596344,0.6680679,0.92099,0,1.280632
						C78.7898178,38.3027,78.7931595,37.7413445,79.4577484,37.3816376z" style="fill:#201810"></path>
          </g>
          <g>
            <path d="M81.5441132,38.4302673c-0.6644516-0.2293282-0.6680603-0.5872955,0-0.8166275
						C82.2116776,37.8428345,82.2090378,38.2007751,81.5441132,38.4302673z" style="fill:#201810"></path>
          </g>
          <g>
            <path d="M90.6224823,35.6343842c0.5794601,0.7136955,0.4840622,1.7263145-0.262146,2.3050041
						C89.7787399,37.2270355,89.8782272,36.2147102,90.6224823,35.6343842z" style="fill:#201810"></path>
          </g>
          <g>
            <path d="M93.083847,34.8803024c0.5805588,0.705204,0.4867477,1.7045822-0.2584229,2.2747421
						C92.2441559,36.4527588,92.3392029,35.4532623,93.083847,34.8803024z" style="fill:#201810"></path>
          </g>
          <g>
            <path d="M99.5163422,33.3934097c0.6331863,0.3613663,0.592514,0.8275833-0.1009521,1.0629463
						C98.7789917,34.0948677,98.8262329,33.6292229,99.5163422,33.3934097z" style="fill:#201810"></path>
          </g>
          <g>
            <path d="M45.9890594,33.1533051c0.8031769,0.2577324,1.1109772,1.0269203,0.6717529,1.7662621
						C45.8546371,34.6632195,45.5530128,33.8917847,45.9890594,33.1533051z" style="fill:#201810"></path>
          </g>
          <g>
            <path d="M48.5341644,34.036438c0.7851791,0.265892,1.0512199,1.0109138,0.5762329,1.7099953
						C48.3228798,35.4820175,48.0619392,34.7353401,48.5341644,34.036438z" style="fill:#201810"></path>
          </g>
          <g>
            <path d="M74.7156219,49.1122475c0.5678635,0.78759,0.4902573,1.9523964-0.2715454,2.6464806
						C73.8667908,50.9624748,73.9653549,49.7996254,74.7156219,49.1122475z" style="fill:#201810"></path>
          </g>
          <g>
            <path d="M34.7624359,27.126791c1.8006706,1.4482327,3.7867241,4.3058033,4.5073853,6.5351009
						C37.4717865,32.220089,35.4884262,29.3612061,34.7624359,27.126791z" style="fill:#201810"></path>
          </g>
          <g>
            <path d="M56.3097382,51.1881332c4.1468544-1.8213005,8.2607956-1.0444794,12.1554565,1.2332153
						c-2.0895386-0.3189011-4.0578003-0.9148636-6.0484009-1.1613693
						C60.4349213,50.9740448,58.4168549,51.1118774,56.3097382,51.1881332z" style="fill:#201810"></path>
          </g>
          <g>
            <path d="M120.4905014,100.5227356c0.0193253,0.7818527-0.5115509,1.6988602-1.0424957,2.2297363
						c-1.7752075,1.7291946-4.8472595,1.1976089-5.9556046-0.7432632c-0.7336044-1.0906906-0.8976822-2.36483-1.167984-3.6293182
						c-1.229538-5.1654816-1.417305-4.6663895-2.181427-7.6255417c-2.4775696-9.3183899-2.6252899-10.3328705-3.0405807-10.9556274
						v-0.0096664c-0.1793594-0.2511826-0.342514-0.4141006-0.7818527-0.5019455
						c-0.8050232-0.1637192-4.3229599-0.2123337-5.7143021-0.2123337c-2.8861008-1.4478836-1.5444412-8.9093475,0.183403-10.1738281
						v0.0482483c1.3899689,1.0424957,3.783783,1.5347824,5.4536591,2.0656586
						c1.1004028,0.3474808,2.181488,0.7239456,3.2722321,1.061821c1.3320541,0.4247131,2.8185272,0.7625275,3.8706818,1.7374496
						c0.5115585,0.4633026,1.196907,1.4188919,1.4382248,2.0656586c0.8975143,2.4356842,4.0698471,16.7834396,4.7587051,20.1062393
						C119.8823853,97.4532242,120.4422531,99.0169373,120.4905014,100.5227356z" style="fill:#201810"></path>
          </g>
          <g>
            <path d="M113.9593964,100.0919571l-5.6748047-21.0327148
						c-0.1210938-0.4482422-0.5126953-0.7788086-0.9746094-0.8227539l-7.4384766-0.7060547
						c-0.2646484-0.0249023-0.4628906-0.2514648-0.453125-0.5166016c0.2962723-6.0097427,0.0720978-5.9511414,0.4238281-6.2114258
						c0.1230469-0.0893555,0.28125-0.1201172,0.4257813-0.0805664c3.4208832,0.9016571,7.3389816,1.8693771,10.3066406,3.1899414
						c1.3085785,0.581543,2.2773438,1.684082,2.6591797,3.0253906c1.6464844,5.7939453,3.7734375,14.315918,5.6357422,21.8876953
						c0.3320313,1.347168-0.4921875,2.7216797-1.8369141,3.0639648
						C115.7061005,102.2283249,114.3207703,101.430542,113.9593964,100.0919571z M100.4359589,76.5797501l6.9677734,0.6616211
						c0.8759766,0.0830078,1.6171875,0.7089844,1.8457031,1.5571289l5.6748047,21.0327148
						c0.2177734,0.8056641,1.046875,1.2919922,1.8623047,1.0888672l0,0c0.8144531-0.2075195,1.3134766-1.0400391,1.1123047-1.855957
						c-1.8613281-7.5634766-3.984375-16.074707-5.6269531-21.8535156c-0.2998047-1.0551758-1.0664063-1.9243164-2.1035156-2.3847656
						c-2.7824783-1.2385635-6.3705368-2.139267-9.5537109-2.9780273L100.4359589,76.5797501z" style="fill:#fefeea"></path>
          </g>
          <g>
            <path d="M99.9683685,75.7587204c2.2700806-0.3466415,4.5336304-0.3875351,6.7957153-0.3567505
						c1.0772171,0.1161423,2.4991226-0.1939163,3.5022583,0.7852402c0.4998169,0.4224548,0.7590332,1.1175537,0.8485718,1.6492996
						c0.1185913,0.5568771,0.2401733,1.1128845,0.3189087,1.6838455c-0.9161606-1.5825882-0.8932037-2.1890945-1.6640015-2.7311783
						c-0.8773575-0.5818787-1.3544846-0.3106918-3.0263672-0.3880157
						C104.4819183,76.3367157,102.2219086,76.2005844,99.9683685,75.7587204z" style="fill:#fefeea"></path>
          </g>
          <g>
            <path d="M36.1031952,119.077858c-0.8244629,0.5318298-1.6712036,0.9863281-2.2678833,1.6300049
						c-1.8865318,2.023056-1.8848763,4.9915314,0.15802,7.208313c-2.8777962-1.2103882-3.498951-5.6312256-0.6750488-7.7887878
						C34.158432,119.4746628,35.1456146,119.2231979,36.1031952,119.077858z" style="fill:#201810"></path>
          </g>
          <g>
            <path d="M36.7554169,121.7798233c-1.3412514,1.9239044-0.6611671,4.8835983,2.6281128,6.668129
						c1.9293404,1.0746765,5.9149666,2.3159027,8.007019,2.9187469c-3.2602959-0.0406036-6.5288658-0.9878082-8.4924316-2.0451508
						C35.1385689,127.2264481,34.7103653,123.437355,36.7554169,121.7798233z" style="fill:#201810"></path>
          </g>
          <g>
            <path d="M38.6154633,123.856987c0.047657,0.0363235,3.3050003,2.6779709,3.3731079,2.73703
						C40.3976898,127.0274658,38.5235176,125.4894943,38.6154633,123.856987z" style="fill:#201810"></path>
          </g>
          <g>
            <path d="M36.1156464,129.7380524c3.5806541,2.2070923,6.4069748,3.1893463,10.7269897,3.6243896
						C43.1348686,134.5291901,38.3409843,132.8860168,36.1156464,129.7380524z" style="fill:#201810"></path>
          </g>
          <g>
            <path d="M39.0010834,134.4584961c1.3424568-0.0062256,4.0301132,0.4328766,5.3035278,0.8733978
						C42.689743,136.2032013,40.2216225,135.7644806,39.0010834,134.4584961z" style="fill:#201810"></path>
          </g>
          <g>
            <path d="M47.8840179,135.7910767c1.5615845,0.3849335,3.0032959,0.8239288,4.4918823,1.1553345
						c1.4823608,0.3584747,2.9689941,0.6019287,4.5400391,0.9489594
						C54.000679,138.7360077,50.1116333,137.8139954,47.8840179,135.7910767z" style="fill:#201810"></path>
          </g>
          <g>
            <path d="M53.342453,134.97789c1.5432472-0.1047211,4.2509995,0.2980347,5.7093506,0.863327
						C57.3229446,136.5910034,54.7648354,136.1942444,53.342453,134.97789z" style="fill:#201810"></path>
          </g>
          <g>
            <path d="M62.0045013,138.3656006c0.9469795-0.4328918,2.1532898-0.3226318,3.0040283,0.2875977
						C64.1576233,139.3851166,62.7034225,139.2440338,62.0045013,138.3656006z" style="fill:#201810"></path>
          </g>
          <g>
            <path d="M65.746933,136.4157562c2.3031311-0.1859894,8.9318924-0.1650848,11.1312866,0
						C73.5911942,137.5980835,68.978714,137.5494385,65.746933,136.4157562z" style="fill:#201810"></path>
          </g>
          <g>
            <path d="M72.6873627,138.7785645c1.8961792-0.2907867,3.7218018-0.4756775,5.546814-0.7769928
						c1.8295288-0.272583,3.6240234-0.6537476,5.519165-0.9538574
						C80.7659912,138.9768372,76.1658096,139.7112732,72.6873627,138.7785645z" style="fill:#201810"></path>
          </g>
          <g>
            <path d="M88.8343353,134.2853851c1.4452515-0.6930847,4.2521515-1.3861542,5.854187-1.43927
						C93.2977295,134.228714,90.6864624,134.8551941,88.8343353,134.2853851z" style="fill:#201810"></path>
          </g>
          <g>
            <path d="M91.9253998,135.8946228c1.4225616-1.0206909,3.9958191-1.8785553,5.7802734-1.895874
						C96.3276901,135.2950287,93.7978973,136.1188202,91.9253998,135.8946228z" style="fill:#201810"></path>
          </g>
          <g>
            <path d="M101.2831879,135.0387268c1.9070358-1.2352448,6.2647324-3.3356628,8.4231567-4.0531311
						C107.7025604,133.1262817,104.1296234,134.8110199,101.2831879,135.0387268z" style="fill:#201810"></path>
          </g>
          <g>
            <path d="M100.5724945,131.6411743c1.4941406-0.6269989,2.9911499-1.2165375,4.3950806-1.930191
						c2.7525482-1.4207001,5.3210144-3.6360703,5.7786865-6.6861191c0.2151489-1.4882202-0.0263062-3.119812-1.0031128-4.4270172
						c3.3230133,2.6927795,2.2319336,9.1733856-4.4526367,11.8202591
						C103.7639008,131.0417328,102.1696625,131.3858032,100.5724945,131.6411743z" style="fill:#201810"></path>
          </g>
          <g>
            <path d="M98.6113129,130.158783c2.0484619-1.2366943,4.0117798-2.4662857,5.8265991-3.9070969
						c2.0089874-1.5646896,3.0964584-3.1811905,3.020874-5.7303467c0.4494019,1.1187286,0.4205933,2.4537201-0.0581665,3.6293945
						C106.2587585,127.0385132,101.6624832,129.5023346,98.6113129,130.158783z" style="fill:#201810"></path>
          </g>
          <g>
            <path d="M111.0938568,116.3473129c3.0451813,0.3594284,5.2082291,4.0473251,4.0021362,6.8858337
						C114.6352234,120.1593094,113.5109863,118.2432098,111.0938568,116.3473129z" style="fill:#201810"></path>
          </g>
          <g>
            <path d="M111.9649506,128.8274384c0.2377167-1.0375977,1.0232773-2.0257645,1.984436-2.4850693
						C114.1327515,127.5150986,113.1364822,128.7446289,111.9649506,128.8274384z" style="fill:#201810"></path>
          </g>
          <g>
            <path d="M116.6623383,125.7720718c0.5547409-1.8553543,0.4091949-1.1717758,0.8927612-3.6282043
						C118.7907639,123.1287689,118.2036819,125.4709702,116.6623383,125.7720718z" style="fill:#201810"></path>
          </g>
          <g>
            <path d="M32.0636444,130.4462128c-3.2784443-0.4893341-4.9577541-4.0840454-3.7792358-6.4660416
						C28.7525444,127.2472534,29.848135,128.4709625,32.0636444,130.4462128z" style="fill:#201810"></path>
          </g>
        </g>
        <g>
          <path d="M53.0443573,59.4513321c-3.4971123-6.1079178-3.2335701-5.6479263-3.2910156-5.7495117l0.2167969-0.125
					c1.053627,1.7908325,2.2897987,3.6498566,3.2285156,5.6079102l0.0859375,0.1791992h-0.1552734L53.0443573,59.4513321z" style="fill:#fefeea"></path>
        </g>
      </g>
    </g>
  </g>
</svg>
